<mxfile host="app.diagrams.net" modified="2023-06-24T21:15:05.381Z" agent="Mozilla/5.0 (Windows NT 10.0; Win64; x64) AppleWebKit/537.36 (KHTML, like Gecko) Chrome/114.0.0.0 Safari/537.36" version="21.3.2" etag="LRXJfKv8IqMUyw99LTEf" type="github">
  <diagram name="Page-1" id="XHSzGx8aBA1cCxRX-s2n">
    <mxGraphModel>
      <root>
        <mxCell id="0" />
        <mxCell id="1" parent="0" />
      </root>
    </mxGraphModel>
  </diagram>
</mxfile>
